<svg width="30" height="29" viewBox="0 0 30 29" fill="none" xmlns="http://www.w3.org/2000/svg">
<g clip-path="url(#clip0_39_231)">
<path d="M16.8904 4.80183L20.9028 5.88468C20.9033 5.88482 20.9038 5.88496 20.9043 5.8851M16.8904 4.80183L21.0306 7.4C21.1132 7.12041 20.9441 6.82751 20.6698 6.75401L20.9043 5.8851M16.8904 4.80183C15.631 4.44918 14.6597 5.81715 15.2785 6.88895L15.7744 7.7479L11.0437 10.4791C10.1099 11.0183 9.7883 12.2184 10.3275 13.1523C10.8666 14.0862 12.0668 14.4078 13.0006 13.8686L17.7221 11.1426L18.218 12.0016C18.8519 13.0995 20.5119 12.8974 20.8315 11.6492L21.8979 7.64044M16.8904 4.80183L21.8979 7.64044M20.9043 5.8851C21.6567 6.08762 22.1152 6.87566 21.8979 7.64044M20.9043 5.8851L21.8979 7.64044M13.7816 21.8975L13.2804 21.0294L18.0019 18.3035C18.9358 17.7643 19.2573 16.5642 18.7182 15.6303C18.179 14.6964 16.9789 14.3748 16.045 14.914L11.3235 17.64L10.8276 16.781C10.1937 15.6831 8.53375 15.8852 8.21416 17.1334L7.1453 21.1512L7.14255 21.1616L7.14004 21.172C6.95971 21.9213 7.39604 22.677 8.13511 22.8955L8.1454 22.8986L8.15575 22.9014L12.1697 23.9846C13.4291 24.3373 14.4004 22.9693 13.7816 21.8975Z" stroke="#878787" stroke-width="1.8"/>
</g>
<defs>
<clipPath id="clip0_39_231">
<rect width="23.1934" height="18.4781" fill="white" transform="translate(0 12.23) rotate(-30)"/>
</clipPath>
</defs>
</svg>
