<svg width="18" height="22" viewBox="0 0 18 22" fill="none" xmlns="http://www.w3.org/2000/svg">
<path d="M2.18317 14.7123L0.749967 19.5668C0.657837 19.9086 0.851587 20.2442 1.19372 20.3354L6.11442 21.5214C6.66869 21.6633 7.14204 21.058 6.86704 20.5817L5.74204 18.6331L12.6102 14.6678C13.2387 14.3049 13.4718 13.5209 13.128 12.9255C12.7843 12.3301 11.9887 12.1399 11.3602 12.5027L4.49204 16.4681L3.37329 14.5304C3.09204 14.0432 2.33744 14.1613 2.18317 14.7123ZM16.7588 1.66381L11.8381 0.477763C11.2838 0.335888 10.8105 0.941157 11.0855 1.41747L12.2042 3.3552L5.32463 7.32714C4.6961 7.69002 4.46309 8.47407 4.80684 9.06946C5.15059 9.66485 5.9461 9.85509 6.57463 9.4922L13.4428 5.52686L14.5615 7.46459C14.8428 7.95173 15.5974 7.8336 15.7517 7.28266L17.1849 2.42818C17.2947 2.09054 17.0947 1.74413 16.7588 1.66381Z" fill="white"/>
</svg>
